<svg width="25" height="25" viewBox="0 0 25 25" fill="none" xmlns="http://www.w3.org/2000/svg">
<path d="M12.5003 19.7917C17.678 19.7917 21.8753 16.5271 21.8753 12.5C21.8753 8.47292 17.678 5.20833 12.5003 5.20833C7.32266 5.20833 3.12533 8.47292 3.12533 12.5C3.12533 16.5271 7.32266 19.7917 12.5003 19.7917ZM12.5003 21.875C6.27557 21.875 1.04199 17.8071 1.04199 12.5C1.04199 7.19292 6.27557 3.125 12.5003 3.125C18.7251 3.125 23.9587 7.19292 23.9587 12.5C23.9587 17.8071 18.7251 21.875 12.5003 21.875ZM6.25033 9.375C6.25033 8.7997 6.72508 8.33333 7.29457 8.33333H17.7061C18.2828 8.33333 18.7503 8.79569 18.7503 9.375C18.7503 9.9503 18.2756 10.4167 17.7061 10.4167H7.29457C6.71785 10.4167 6.25033 9.95431 6.25033 9.375ZM6.25033 12.5C6.25033 11.9247 6.72224 11.4583 7.2889 11.4583H13.5451C14.1187 11.4583 14.5837 11.9207 14.5837 12.5C14.5837 13.0753 14.1117 13.5417 13.5451 13.5417H7.2889C6.71531 13.5417 6.25033 13.0793 6.25033 12.5ZM6.25033 15.625C6.25033 15.0497 6.71253 14.5833 7.29179 14.5833H10.4172C10.9924 14.5833 11.4587 15.0457 11.4587 15.625C11.4587 16.2003 10.9965 16.6667 10.4172 16.6667H7.29179C6.71661 16.6667 6.25033 16.2043 6.25033 15.625ZM4.16699 17.7083L8.33366 20.8333L4.16699 21.875V17.7083Z" fill="white"/>
</svg>
